inDegrees=no
num_controls=7
num_derivatives=13
num_iterations=71
num_multipliers=7
num_parameters=0
num_slacks=7
num_states=26
objective=0.333910
objective_accelerations=0.036770
objective_balance=0.001336
objective_effort=0.027094
objective_height=0.267238
objective_ligament=0.001472
solver_duration=735.833888
status=Solve_Succeeded
success=true
DataType=double
version=3
OpenSimVersion=4.5
endheader
time	/jointset/ground_pelvis/pelvis_tilt/value	/jointset/ground_pelvis/pelvis_tx/value	/jointset/ground_pelvis/pelvis_ty/value	/jointset/hip_r/hip_flexion_r/value	/jointset/hip_r/hip_adduction_r/value	/jointset/hip_r/hip_rotation_r/value	/jointset/back/lumbar_extension/value	/jointset/patellofemoral_r/patellar_flexion_r/value	/jointset/knee_r/knee_flexion_r/value	/jointset/knee_r/knee_adduction_r/value	/jointset/knee_r/knee_rotation_r/value	/jointset/ankle_r/ankle_angle_r/value	/jointset/subtalar_r/subtalar_angle_r/value	/jointset/ground_pelvis/pelvis_tilt/speed	/jointset/ground_pelvis/pelvis_tx/speed	/jointset/ground_pelvis/pelvis_ty/speed	/jointset/hip_r/hip_flexion_r/speed	/jointset/hip_r/hip_adduction_r/speed	/jointset/hip_r/hip_rotation_r/speed	/jointset/back/lumbar_extension/speed	/jointset/patellofemoral_r/patellar_flexion_r/speed	/jointset/knee_r/knee_flexion_r/speed	/jointset/knee_r/knee_adduction_r/speed	/jointset/knee_r/knee_rotation_r/speed	/jointset/ankle_r/ankle_angle_r/speed	/jointset/subtalar_r/subtalar_angle_r/speed	/forceset/tau_hip_flexion_r	/forceset/tau_hip_adduction_r	/forceset/tau_hip_rotation_r	/forceset/tau_knee_flexion_r	/forceset/tau_ankle_angle_r	/forceset/tau_subtalar_angle_r	/forceset/tau_lumbar_extension	lambda_cid13_p0	lambda_cid14_p0	lambda_cid14_p1	lambda_cid14_p2	lambda_cid14_p3	lambda_cid14_p4	lambda_cid14_p5	/jointset/ground_pelvis/pelvis_tilt/accel	/jointset/ground_pelvis/pelvis_tx/accel	/jointset/ground_pelvis/pelvis_ty/accel	/jointset/hip_r/hip_flexion_r/accel	/jointset/hip_r/hip_adduction_r/accel	/jointset/hip_r/hip_rotation_r/accel	/jointset/back/lumbar_extension/accel	/jointset/patellofemoral_r/patellar_flexion_r/accel	/jointset/knee_r/knee_flexion_r/accel	/jointset/knee_r/knee_adduction_r/accel	/jointset/knee_r/knee_rotation_r/accel	/jointset/ankle_r/ankle_angle_r/accel	/jointset/subtalar_r/subtalar_angle_r/accel	gamma_cid13_p0	gamma_cid14_p0	gamma_cid14_p1	gamma_cid14_p2	gamma_cid14_p3	gamma_cid14_p4	gamma_cid14_p5
0.5	-0.1705710779086999	0.02929563373957845	0.8053436700448426	0.9187160773324856	-0.2241947284906048	-0.1225421303470516	-0.6465085938545306	0.9510193431878037	0.9510193431877959	-0.0446882845828336	0.1745227842890585	0.2941361099322028	0.1364105579635867	-0.4323453946901739	-0.205954204189454	-0.5056092782826966	1.940820597955687	-0.006422337122805874	0.1722534034408684	-0.7391188368573471	1.925290501100882	1.92529050110087	-0.4706992743853706	-5.452631016954077e-07	0.5302190663397746	0.1985667549253711	-0.2139807542486007	0.02839715173782852	0.01516470870050831	-0.2662561430561216	-0.01650974028711806	-0.007108805927174064	0.248931495022653	-8.61384358131297	-48.1596401327738	-10.84551001751084	1.380850520700781	-2.973328444899615	-640.0190860184389	48.33296332890833	0.390247831736461	0.5970624209911116	-0.4284836714478159	-1.34485134485786	-0.2441473805823469	-0.6951193420311574	1.815327218237784	-1.357292706064381	-1.357292706064377	0.39138861034865	-0.00595553304539229	-0.5610195640883281	-0.3831368290215439	-1.435986638760267e-07	-1.471016534269045e-07	5.741141197284942e-07	-1.55304432441507e-06	3.383875210249106e-08	-2.8074471770193e-07	4.454957391096612e-07
0.51	-0.1748740070867766	0.02726613274452095	0.8002673415666925	0.9380538909865533	-0.2242720672780055	-0.1208527935028483	-0.6538084774108535	0.9702017350489486	0.9702017350489555	-0.04937228973178788	0.1745231708398505	0.2994090744799118	0.1383750132156885	-0.4281665461440373	-0.1999294505302981	-0.5095419653934747	1.926478380136007	-0.009048505083680426	0.1656707252770986	-0.7207694506063365	1.910934586418098	1.910934586418083	-0.4660063944510183	7.428165081824721e-05	0.5242915563054007	0.1942667378136017	-0.2210363664459416	0.02980887820581084	0.01513330921840367	-0.2704858952518455	-0.01807377707744928	-0.006679518940323822	0.2553136033389709	-7.661701768159795	-48.98850733817586	-10.99218250507777	1.618956181732856	-2.839246521220379	-645.1592321428914	48.31000540667983	0.4427739350775893	0.607669776317975	-0.3585496522983828	-1.518489095543559	-0.2725038280437814	-0.631580037997211	1.858007898501164	-1.512704694599173	-1.512704694599716	0.5226190233184009	0.01338006334162248	-0.6209847353151867	-0.4621576466798457	-1.434324387256507e-07	-1.52922526645321e-07	5.039505778014317e-07	-1.613056206601275e-06	4.375322736174874e-08	-2.753092561440051e-07	3.7232491640741e-07
0.52	-0.1791329336655806	0.02529737687364316	0.7951551085331537	0.9572403660434196	-0.2243757982098653	-0.1192276310371586	-0.660922214390672	0.9892329749942325	0.9892329749942311	-0.05400648981372465	0.1745241413117276	0.3046202903248358	0.1402947235977866	-0.4235448748369134	-0.1938051793535149	-0.5127901893604117	1.9105528785155	-0.01170076601270915	0.1594185277354415	-0.7018895215565976	1.895060117926764	1.895060117926745	-0.4607382609830677	0.0001162389539759707	0.5178693257828979	0.189617780924824	-0.2280919786433074	0.03122060467381082	0.01510190973614777	-0.2747156474475841	-0.01963781386777037	-0.006250231953434764	0.2616957116552637	-6.768061623169671	-49.81423372099302	-11.13363441465438	1.850894450770728	-2.739908113174112	-650.2605386645899	48.34679841653787	0.4788123839336864	0.6169659245166598	-0.2915910426795997	-1.661508105023381	-0.2493659742131794	-0.6290232176086259	1.921435777983287	-1.661003467774467	-1.66100346777447	0.5064393170682994	-0.01252945519786556	-0.6599636617139653	-0.4529247844231164	-1.416657943787808e-07	-1.657076374451589e-07	3.145585603558834e-07	-1.740208845518809e-06	6.857117258057347e-08	-2.6366530006544e-07	2.091775985567783e-07
0.53	-0.1833435319696933	0.02339028819175549	0.7900138437270607	0.97625988027565	-0.2245061075119612	-0.1176626320165546	-0.6678446270748987	1.008098086920625	1.008098086920546	-0.05858466485752506	0.174525030213128	0.3097648699384296	0.1421662681920246	-0.4185055740672474	-0.1876027129641993	-0.5153444530530142	1.893096129143193	-0.01435691817891073	0.1536444863876533	-0.6825225785255816	1.87771795249422	1.877717952494208	-0.4548018991521331	5.767844572795114e-05	0.5109692781588601	0.1846435067253147	-0.234970042801393	0.03245331378717938	0.01514261431117711	-0.2792024018493041	-0.02111339796807097	-0.005910081751805398	0.2678945703693259	-5.933611164778393	-50.62962402109104	-11.31774581472421	2.09621001290229	-2.573525220455235	-655.4649232611172	48.37009932311523	0.5268525518552104	0.6233799267216837	-0.2196477216306016	-1.82585812620107	-0.2733620200549003	-0.5423662099044781	1.954889079983354	-1.807442161474554	-1.807442161473643	0.6514964734027817	-0.003447201181605221	-0.7166369210085716	-0.5270039401676551	-1.435797875146794e-07	-1.70396824724004e-07	2.432990169392394e-07	-1.786300939695661e-06	7.416071062241681e-08	-2.451506398235924e-07	1.187930814590874e-07
0.54	-0.1875016645404247	0.02154552275987766	0.7848505755462259	0.9950972070595848	-0.2246629027721608	-0.1161535277327596	-0.6745712572259497	1.026782453376563	1.026782453376486	-0.06310062391159788	0.1745251479389371	0.3148381267541369	0.1439866050037757	-0.4130517281627122	-0.1813405293515479	-0.5171908643087365	1.874115388856221	-0.01699795763433904	0.1482395803782336	-0.6627330149216697	1.858911023842472	1.858911023842467	-0.4482950630293115	-3.799616425684559e-05	0.503604766204428	0.1793762244276879	-0.2418481069595187	0.03368602290047009	0.01518331888684975	-0.2836891562509535	-0.02258898206839313	-0.00556993155034383	0.2740934290833567	-5.158493443958005	-51.44223124827059	-11.49640074383298	2.334979474492429	-2.444605103318346	-660.638483370993	48.45656725673414	0.5617214109073391	0.6289093691839206	-0.1500205553035416	-1.966306287956407	-0.246343432058458	-0.555196149934911	2.005959892562369	-1.95395611161519	-1.953956111615178	0.6205341754456857	-0.01995227554523608	-0.7528565277927175	-0.5115264040465534	-1.495659753123645e-07	-1.661288200221762e-07	3.027392320226612e-07	-1.742709026925373e-06	5.847626625568474e-08	-2.190343494436448e-07	1.089120885986938e-07
0.55	-0.1916032977361968	0.01976360649317914	0.7796723797454256	1.01373737510153	-0.2248458306706376	-0.1146973980395804	-0.6810979426193422	1.045271552629178	1.045271552629039	-0.06754961442692564	0.1745244623710012	0.319835549918452	0.1457531443328186	-0.4072113182427015	-0.1750394006197478	-0.5183290720728305	1.853679923883505	-0.01956201862214818	0.1429867109453575	-0.6425458112708421	1.838671505824992	1.838671505824986	-0.4414967753609113	-9.613521807332357e-05	0.4958147454003889	0.1739224998013309	-0.2485648150804365	0.03479285521343742	0.01530447370731232	-0.2882821404703447	-0.02409740491826198	-0.005334346466746043	0.2801040791858259	-4.442460286462398	-52.27792536921449	-11.72832489004965	2.586598580469899	-2.222149164277756	-665.806090269889	48.50098506183195	0.604719919439267	0.6312231148228389	-0.07787827799935294	-2.117935150273861	-0.2578234015513474	-0.5105337965249013	2.033838474120078	-2.09451720708187	-2.094517207082111	0.7104771395749776	0.001373211113284878	-0.8018627909507056	-0.5638179039273944	-1.263999385766669e-07	-1.080486000859473e-07	5.577821692753646e-07	-1.211519624437573e-06	-5.600246418690341e-09	-1.704675357213153e-07	3.135998466118395e-07
0.5600000000000001	-0.1956446230054	0.01804480321172746	0.774486370388777	1.032166034784067	-0.225053676372938	-0.1132938373319022	-0.6874210084016709	1.063551143189444	1.063551143189379	-0.07193042185006483	0.1745232189988899	0.3247531152878575	0.1474648419331977	-0.4009901428470835	-0.1687179323021804	-0.5187535754783563	1.831813716976973	-0.02198151838639214	0.1377257832500864	-0.6220090927089362	1.817009285396812	1.817009285396804	-0.4346584446110308	-0.0001495570153502642	0.4876332072267039	0.1684078786950998	-0.2552815232013376	0.03589968752668161	0.01542562852533463	-0.2928751246899964	-0.02560582776802414	-0.005098761382501846	0.286114729288287	-3.7850847983832	-53.11140230967704	-11.95202713019356	2.827958530054124	-2.037610295435925	-670.9568003370658	48.6133167725761	0.637874506028565	0.6329772863374181	-0.007279683589916507	-2.252454674719735	-0.2174311873455844	-0.5568078024139157	2.075862874777931	-2.238496593755194	-2.238496593755198	0.6285427917417444	-0.01900882423736054	-0.8311600017218237	-0.5237057000213007	-6.825123240091138e-08	1.460627813156099e-08	1.047548373131198e-06	-9.521323428877693e-08	-1.277472410622351e-07	-9.496009398812822e-08	7.757701056732241e-07
0.5700000000000001	-0.1996220452991628	0.01638924891702373	0.7692996811367809	1.050369201617914	-0.225284394041768	-0.1119461270326917	-0.6935370347355236	1.08160672889094	1.081606728890888	-0.07624638302275487	0.1745222393325752	0.3295871044169799	0.1491221794558535	-0.3944409694147468	-0.1623947359944863	-0.5184634020669433	1.808592301108751	-0.0241377351246494	0.1318248014369517	-0.6011577559217534	1.793875956422472	1.793875956422469	-0.4285200834749019	-5.593567999538088e-05	0.479102600868606	0.163050624894657	-0.2616360964069931	0.03682617793172503	0.01554609835669063	-0.2977654437584819	-0.0268418353223722	-0.004911027714922809	0.2917844897960904	-3.18544924586825	-53.86090571628441	-12.18487717348489	3.074281963936163	-1.838441456210946	-676.0546411330754	48.73839018634834	0.67145090052242	0.6316800316969666	0.06528633186380176	-2.391075612028322	-0.2109389365806606	-0.6055099123661555	2.095531801556585	-2.385528749367189	-2.385528749366605	0.6087025448114852	0.02226751324270144	-0.8733536713101442	-0.5428139980519396	-3.056854028963762e-08	8.709360383106224e-08	1.288100654736984e-06	5.40533336905981e-07	-1.944579134170144e-07	-4.998114447604221e-08	1.030546305359162e-06
